<mxfile host="Electron" modified="2024-04-17T15:06:17.380Z" agent="Mozilla/5.0 (Windows NT 10.0; Win64; x64) AppleWebKit/537.36 (KHTML, like Gecko) draw.io/24.1.0 Chrome/120.0.6099.109 Electron/28.1.0 Safari/537.36" etag="GM3A8io_qfNDBX5QgyYX" version="24.1.0" type="device" pages="2">
  <diagram name="Rachel" id="yo59dInVK3Q_ICHSUt5j">
    <mxGraphModel dx="717" dy="418" grid="1" gridSize="10" guides="1" tooltips="1" connect="1" arrows="1" fold="1" page="1" pageScale="1" pageWidth="827" pageHeight="1169" math="0" shadow="0">
      <root>
        <mxCell id="0" />
        <mxCell id="1" parent="0" />
        <mxCell id="00jMR_IQg39lo3vC51mN-14" value="TRE" style="rounded=0;whiteSpace=wrap;html=1;fillColor=#f8cecc;labelPosition=center;verticalLabelPosition=top;align=center;verticalAlign=bottom;strokeColor=#b85450;opacity=20;" vertex="1" parent="1">
          <mxGeometry x="180" y="110" width="210" height="970" as="geometry" />
        </mxCell>
        <mxCell id="00jMR_IQg39lo3vC51mN-1" value="Rachel" style="html=1;outlineConnect=0;whiteSpace=wrap;fillColor=#ffff99;verticalLabelPosition=top;verticalAlign=bottom;align=center;shape=mxgraph.archimate3.actor;labelPosition=center;strokeColor=#808080;" vertex="1" parent="1">
          <mxGeometry x="92" y="43" width="26.5" height="50" as="geometry" />
        </mxCell>
        <mxCell id="00jMR_IQg39lo3vC51mN-2" value="Iain" style="html=1;outlineConnect=0;whiteSpace=wrap;fillColor=#ffff99;verticalLabelPosition=top;verticalAlign=bottom;align=center;shape=mxgraph.archimate3.actor;labelPosition=center;strokeColor=#808080;" vertex="1" parent="1">
          <mxGeometry x="690" y="43" width="26.5" height="50" as="geometry" />
        </mxCell>
        <mxCell id="00jMR_IQg39lo3vC51mN-3" value="Peter" style="html=1;outlineConnect=0;whiteSpace=wrap;fillColor=#ffff99;verticalLabelPosition=top;verticalAlign=bottom;align=center;shape=mxgraph.archimate3.actor;labelPosition=center;strokeColor=#808080;" vertex="1" parent="1">
          <mxGeometry x="450" y="43" width="26.5" height="50" as="geometry" />
        </mxCell>
        <mxCell id="00jMR_IQg39lo3vC51mN-4" value="Preethi" style="html=1;outlineConnect=0;whiteSpace=wrap;fillColor=#ffff99;verticalLabelPosition=top;verticalAlign=bottom;align=center;shape=mxgraph.archimate3.actor;labelPosition=center;strokeColor=#808080;" vertex="1" parent="1">
          <mxGeometry x="330" y="43" width="26.5" height="50" as="geometry" />
        </mxCell>
        <mxCell id="00jMR_IQg39lo3vC51mN-5" value="Gill" style="html=1;outlineConnect=0;whiteSpace=wrap;fillColor=#ffff99;verticalLabelPosition=top;verticalAlign=bottom;align=center;shape=mxgraph.archimate3.actor;labelPosition=center;strokeColor=#808080;" vertex="1" parent="1">
          <mxGeometry x="210" y="43" width="26.5" height="50" as="geometry" />
        </mxCell>
        <mxCell id="00jMR_IQg39lo3vC51mN-11" value="Pawel" style="html=1;outlineConnect=0;whiteSpace=wrap;fillColor=#ffff99;verticalLabelPosition=top;verticalAlign=bottom;align=center;shape=mxgraph.archimate3.actor;labelPosition=center;strokeColor=#808080;" vertex="1" parent="1">
          <mxGeometry x="570" y="43" width="26.5" height="50" as="geometry" />
        </mxCell>
        <mxCell id="00jMR_IQg39lo3vC51mN-15" value="project idea" style="endArrow=classic;html=1;rounded=0;labelPosition=right;verticalLabelPosition=top;align=left;verticalAlign=bottom;startArrow=classic;startFill=1;dashed=1;" edge="1" parent="1">
          <mxGeometry x="-0.7876" width="50" height="50" relative="1" as="geometry">
            <mxPoint x="108" y="200" as="sourcePoint" />
            <mxPoint x="221" y="200" as="targetPoint" />
            <mxPoint as="offset" />
          </mxGeometry>
        </mxCell>
        <mxCell id="00jMR_IQg39lo3vC51mN-16" value="explore cohort defn" style="endArrow=classic;html=1;rounded=0;labelPosition=right;verticalLabelPosition=top;align=left;verticalAlign=bottom;dashed=1;startArrow=classic;startFill=1;" edge="1" parent="1">
          <mxGeometry x="-0.8966" width="50" height="50" relative="1" as="geometry">
            <mxPoint x="228" y="233" as="sourcePoint" />
            <mxPoint x="460" y="233" as="targetPoint" />
            <mxPoint as="offset" />
          </mxGeometry>
        </mxCell>
        <mxCell id="00jMR_IQg39lo3vC51mN-20" value="agree cohort defn" style="endArrow=classic;html=1;rounded=0;labelPosition=right;verticalLabelPosition=top;align=left;verticalAlign=bottom;dashed=1;startArrow=classic;startFill=1;" edge="1" parent="1">
          <mxGeometry x="-0.8966" width="50" height="50" relative="1" as="geometry">
            <mxPoint x="227.25" y="293" as="sourcePoint" />
            <mxPoint x="459.25" y="293" as="targetPoint" />
            <mxPoint as="offset" />
          </mxGeometry>
        </mxCell>
        <mxCell id="00jMR_IQg39lo3vC51mN-21" value="agree cohort defn" style="endArrow=classic;html=1;rounded=0;labelPosition=right;verticalLabelPosition=top;align=left;verticalAlign=bottom;startArrow=classic;startFill=1;dashed=1;" edge="1" parent="1">
          <mxGeometry x="-0.7876" width="50" height="50" relative="1" as="geometry">
            <mxPoint x="108" y="293" as="sourcePoint" />
            <mxPoint x="221" y="293" as="targetPoint" />
            <mxPoint as="offset" />
          </mxGeometry>
        </mxCell>
        <mxCell id="00jMR_IQg39lo3vC51mN-22" value="agree project defn" style="endArrow=classic;html=1;rounded=0;labelPosition=right;verticalLabelPosition=top;align=left;verticalAlign=bottom;startArrow=classic;startFill=1;dashed=1;labelBackgroundColor=none;" edge="1" parent="1">
          <mxGeometry x="-0.7876" width="50" height="50" relative="1" as="geometry">
            <mxPoint x="108" y="400" as="sourcePoint" />
            <mxPoint x="221" y="400" as="targetPoint" />
            <mxPoint as="offset" />
          </mxGeometry>
        </mxCell>
        <mxCell id="00jMR_IQg39lo3vC51mN-26" value="send NHS# for cohort" style="endArrow=none;html=1;rounded=0;labelPosition=left;verticalLabelPosition=top;align=right;verticalAlign=bottom;startArrow=classic;startFill=1;endFill=0;labelBackgroundColor=none;" edge="1" parent="1">
          <mxGeometry x="0.9217" width="50" height="50" relative="1" as="geometry">
            <mxPoint x="249.13" y="340" as="sourcePoint" />
            <mxPoint x="437.3699999999999" y="340" as="targetPoint" />
            <mxPoint as="offset" />
          </mxGeometry>
        </mxCell>
        <mxCell id="00jMR_IQg39lo3vC51mN-31" style="edgeStyle=orthogonalEdgeStyle;rounded=0;orthogonalLoop=1;jettySize=auto;html=1;" edge="1" parent="1" source="00jMR_IQg39lo3vC51mN-29" target="00jMR_IQg39lo3vC51mN-69">
          <mxGeometry relative="1" as="geometry">
            <mxPoint x="677.3800000000001" y="450" as="targetPoint" />
          </mxGeometry>
        </mxCell>
        <mxCell id="00jMR_IQg39lo3vC51mN-32" value="&lt;span style=&quot;text-align: left;&quot;&gt;send NHS# for cohort&lt;/span&gt;" style="edgeLabel;html=1;align=left;verticalAlign=bottom;resizable=0;points=[];labelPosition=right;verticalLabelPosition=top;labelBackgroundColor=none;" vertex="1" connectable="0" parent="00jMR_IQg39lo3vC51mN-31">
          <mxGeometry x="-0.3351" relative="1" as="geometry">
            <mxPoint x="-125" as="offset" />
          </mxGeometry>
        </mxCell>
        <mxCell id="00jMR_IQg39lo3vC51mN-44" style="edgeStyle=orthogonalEdgeStyle;rounded=0;orthogonalLoop=1;jettySize=auto;html=1;align=center;fontSize=10;" edge="1" parent="1" source="00jMR_IQg39lo3vC51mN-68" target="00jMR_IQg39lo3vC51mN-42">
          <mxGeometry relative="1" as="geometry">
            <mxPoint x="677.3800000000001" y="510" as="sourcePoint" />
          </mxGeometry>
        </mxCell>
        <mxCell id="00jMR_IQg39lo3vC51mN-79" value="send ID1, EduIdx mapping for cohort" style="edgeLabel;html=1;align=center;verticalAlign=middle;resizable=0;points=[];labelBackgroundColor=none;fontSize=10;" vertex="1" connectable="0" parent="00jMR_IQg39lo3vC51mN-44">
          <mxGeometry x="-0.6277" y="1" relative="1" as="geometry">
            <mxPoint x="-34" y="-11" as="offset" />
          </mxGeometry>
        </mxCell>
        <mxCell id="00jMR_IQg39lo3vC51mN-48" value="send ID2,&lt;div style=&quot;font-size: 10px;&quot;&gt;lat/long&lt;/div&gt;&lt;div style=&quot;font-size: 10px;&quot;&gt;mapping&lt;/div&gt;&lt;div style=&quot;font-size: 10px;&quot;&gt;for cohort&lt;/div&gt;" style="edgeStyle=orthogonalEdgeStyle;rounded=0;orthogonalLoop=1;jettySize=auto;html=1;align=left;labelBackgroundColor=none;fontSize=10;" edge="1" parent="1" source="00jMR_IQg39lo3vC51mN-34" target="00jMR_IQg39lo3vC51mN-70">
          <mxGeometry x="0.6812" relative="1" as="geometry">
            <mxPoint x="609.1300000000001" y="570" as="targetPoint" />
            <mxPoint as="offset" />
          </mxGeometry>
        </mxCell>
        <mxCell id="00jMR_IQg39lo3vC51mN-50" style="edgeStyle=orthogonalEdgeStyle;rounded=0;orthogonalLoop=1;jettySize=auto;html=1;" edge="1" parent="1" source="00jMR_IQg39lo3vC51mN-35" target="00jMR_IQg39lo3vC51mN-71">
          <mxGeometry relative="1" as="geometry">
            <mxPoint x="489.12" y="630" as="targetPoint" />
          </mxGeometry>
        </mxCell>
        <mxCell id="00jMR_IQg39lo3vC51mN-80" value="send ID3, NHS# mapping for cohort" style="edgeLabel;html=1;align=center;verticalAlign=middle;resizable=0;points=[];labelBackgroundColor=none;fontSize=10;" vertex="1" connectable="0" parent="00jMR_IQg39lo3vC51mN-50">
          <mxGeometry x="0.1673" y="-1" relative="1" as="geometry">
            <mxPoint x="20" y="-9" as="offset" />
          </mxGeometry>
        </mxCell>
        <mxCell id="00jMR_IQg39lo3vC51mN-53" style="edgeStyle=orthogonalEdgeStyle;rounded=0;orthogonalLoop=1;jettySize=auto;html=1;" edge="1" parent="1" source="00jMR_IQg39lo3vC51mN-36" target="00jMR_IQg39lo3vC51mN-72">
          <mxGeometry relative="1" as="geometry">
            <mxPoint x="249.12" y="690" as="targetPoint" />
          </mxGeometry>
        </mxCell>
        <mxCell id="00jMR_IQg39lo3vC51mN-81" value="send IDR, ID1, ID2, ID3&lt;div&gt;mapping for cohort&lt;/div&gt;" style="edgeLabel;html=1;align=left;verticalAlign=middle;resizable=0;points=[];labelBackgroundColor=none;" vertex="1" connectable="0" parent="00jMR_IQg39lo3vC51mN-53">
          <mxGeometry x="-0.1343" relative="1" as="geometry">
            <mxPoint x="61" as="offset" />
          </mxGeometry>
        </mxCell>
        <mxCell id="00jMR_IQg39lo3vC51mN-58" style="edgeStyle=orthogonalEdgeStyle;rounded=0;orthogonalLoop=1;jettySize=auto;html=1;" edge="1" parent="1" source="00jMR_IQg39lo3vC51mN-88" target="00jMR_IQg39lo3vC51mN-87">
          <mxGeometry relative="1" as="geometry">
            <mxPoint x="553.8699999999999" y="790" as="sourcePoint" />
            <mxPoint x="249.12" y="760" as="targetPoint" />
          </mxGeometry>
        </mxCell>
        <mxCell id="00jMR_IQg39lo3vC51mN-60" style="edgeStyle=orthogonalEdgeStyle;rounded=0;orthogonalLoop=1;jettySize=auto;html=1;" edge="1" parent="1" source="00jMR_IQg39lo3vC51mN-83" target="00jMR_IQg39lo3vC51mN-84">
          <mxGeometry relative="1" as="geometry">
            <mxPoint x="437.3699999999999" y="830" as="sourcePoint" />
            <mxPoint x="249.13" y="830" as="targetPoint" />
          </mxGeometry>
        </mxCell>
        <mxCell id="00jMR_IQg39lo3vC51mN-78" style="rounded=0;orthogonalLoop=1;jettySize=auto;html=1;startArrow=classic;startFill=1;endArrow=oval;endFill=1;dashed=1;" edge="1" parent="1" source="00jMR_IQg39lo3vC51mN-92">
          <mxGeometry relative="1" as="geometry">
            <mxPoint x="105" y="975" as="targetPoint" />
            <mxPoint x="190.38" y="975" as="sourcePoint" />
          </mxGeometry>
        </mxCell>
        <mxCell id="00jMR_IQg39lo3vC51mN-82" value="access" style="edgeLabel;html=1;align=center;verticalAlign=middle;resizable=0;points=[];" vertex="1" connectable="0" parent="00jMR_IQg39lo3vC51mN-78">
          <mxGeometry x="0.1664" y="1" relative="1" as="geometry">
            <mxPoint y="-11" as="offset" />
          </mxGeometry>
        </mxCell>
        <mxCell id="00jMR_IQg39lo3vC51mN-6" value="" style="endArrow=none;html=1;rounded=0;movable=1;resizable=1;rotatable=1;deletable=1;editable=1;locked=0;connectable=1;strokeColor=#808080;jumpStyle=gap;strokeWidth=2;" edge="1" parent="1" target="00jMR_IQg39lo3vC51mN-1">
          <mxGeometry width="50" height="50" relative="1" as="geometry">
            <mxPoint x="105" y="1077" as="sourcePoint" />
            <mxPoint x="450" y="337" as="targetPoint" />
          </mxGeometry>
        </mxCell>
        <mxCell id="00jMR_IQg39lo3vC51mN-7" value="" style="endArrow=none;html=1;rounded=0;movable=1;resizable=1;rotatable=1;deletable=1;editable=1;locked=0;connectable=1;strokeColor=#808080;jumpStyle=gap;strokeWidth=2;" edge="1" parent="1" target="00jMR_IQg39lo3vC51mN-5">
          <mxGeometry width="50" height="50" relative="1" as="geometry">
            <mxPoint x="223" y="1077" as="sourcePoint" />
            <mxPoint x="73" y="127" as="targetPoint" />
          </mxGeometry>
        </mxCell>
        <mxCell id="00jMR_IQg39lo3vC51mN-8" value="" style="endArrow=none;html=1;rounded=0;movable=1;resizable=1;rotatable=1;deletable=1;editable=1;locked=0;connectable=1;strokeColor=#808080;jumpStyle=gap;strokeWidth=2;" edge="1" parent="1" target="00jMR_IQg39lo3vC51mN-4">
          <mxGeometry width="50" height="50" relative="1" as="geometry">
            <mxPoint x="343" y="1077" as="sourcePoint" />
            <mxPoint x="193" y="127" as="targetPoint" />
          </mxGeometry>
        </mxCell>
        <mxCell id="00jMR_IQg39lo3vC51mN-9" value="" style="endArrow=none;html=1;rounded=0;movable=1;resizable=1;rotatable=1;deletable=1;editable=1;locked=0;connectable=1;strokeColor=#808080;jumpStyle=gap;strokeWidth=2;" edge="1" parent="1" target="00jMR_IQg39lo3vC51mN-3">
          <mxGeometry width="50" height="50" relative="1" as="geometry">
            <mxPoint x="463" y="1077" as="sourcePoint" />
            <mxPoint x="313" y="127" as="targetPoint" />
          </mxGeometry>
        </mxCell>
        <mxCell id="00jMR_IQg39lo3vC51mN-10" value="" style="endArrow=none;html=1;rounded=0;labelPosition=center;verticalLabelPosition=top;align=center;verticalAlign=bottom;movable=1;resizable=1;rotatable=1;deletable=1;editable=1;locked=0;connectable=1;strokeColor=#808080;jumpStyle=gap;strokeWidth=2;" edge="1" parent="1" target="00jMR_IQg39lo3vC51mN-2">
          <mxGeometry width="50" height="50" relative="1" as="geometry">
            <mxPoint x="703" y="1077" as="sourcePoint" />
            <mxPoint x="403" y="137" as="targetPoint" />
          </mxGeometry>
        </mxCell>
        <mxCell id="00jMR_IQg39lo3vC51mN-12" value="" style="endArrow=none;html=1;rounded=0;movable=1;resizable=1;rotatable=1;deletable=1;editable=1;locked=0;connectable=1;strokeColor=#808080;jumpStyle=gap;strokeWidth=2;" edge="1" parent="1" target="00jMR_IQg39lo3vC51mN-11">
          <mxGeometry width="50" height="50" relative="1" as="geometry">
            <mxPoint x="583" y="1077" as="sourcePoint" />
            <mxPoint x="283" y="137" as="targetPoint" />
          </mxGeometry>
        </mxCell>
        <mxCell id="00jMR_IQg39lo3vC51mN-71" value="[ID3]&lt;div style=&quot;line-height: 200%;&quot;&gt;NHS#&lt;/div&gt;&lt;div style=&quot;line-height: 40%;&quot;&gt;(cohort)&lt;/div&gt;" style="html=1;outlineConnect=0;whiteSpace=wrap;fillColor=#e1d5e7;shape=mxgraph.archimate3.businessObject;overflow=fill;fontSize=10;strokeColor=#9673a6;" vertex="1" parent="1">
          <mxGeometry x="437.37" y="610" width="51.75" height="40" as="geometry" />
        </mxCell>
        <mxCell id="00jMR_IQg39lo3vC51mN-72" value="[IDR]&lt;div style=&quot;line-height: 200%;&quot;&gt;&lt;font style=&quot;font-size: 9px;&quot;&gt;ID1,ID2,ID3&lt;/font&gt;&lt;/div&gt;&lt;div style=&quot;line-height: 40%;&quot;&gt;(cohort)&lt;/div&gt;" style="html=1;outlineConnect=0;whiteSpace=wrap;fillColor=#e1d5e7;shape=mxgraph.archimate3.businessObject;overflow=fill;fontSize=10;strokeColor=#9673a6;" vertex="1" parent="1">
          <mxGeometry x="197.37" y="670" width="51.75" height="40" as="geometry" />
        </mxCell>
        <mxCell id="00jMR_IQg39lo3vC51mN-29" value="[NHS#]&lt;div style=&quot;line-height: 200%;&quot;&gt;(cohort)&lt;/div&gt;" style="html=1;outlineConnect=0;whiteSpace=wrap;fillColor=#ffe6cc;shape=mxgraph.archimate3.businessObject;overflow=fill;fontSize=10;strokeColor=#d79b00;" vertex="1" parent="1">
          <mxGeometry x="197.38" y="430" width="51.75" height="40" as="geometry" />
        </mxCell>
        <mxCell id="00jMR_IQg39lo3vC51mN-34" value="[ID2]&lt;div style=&quot;line-height: 200%;&quot;&gt;lat/long&lt;/div&gt;&lt;div style=&quot;line-height: 40%;&quot;&gt;(cohort)&lt;/div&gt;" style="html=1;outlineConnect=0;whiteSpace=wrap;fillColor=#e1d5e7;shape=mxgraph.archimate3.businessObject;overflow=fill;fontSize=10;strokeColor=#9673a6;" vertex="1" parent="1">
          <mxGeometry x="677.38" y="550" width="51.75" height="40" as="geometry" />
        </mxCell>
        <mxCell id="00jMR_IQg39lo3vC51mN-35" value="[ID3]&lt;div style=&quot;line-height: 200%;&quot;&gt;NHS#&lt;/div&gt;&lt;div style=&quot;line-height: 40%;&quot;&gt;(cohort)&lt;/div&gt;" style="html=1;outlineConnect=0;whiteSpace=wrap;fillColor=#e1d5e7;shape=mxgraph.archimate3.businessObject;overflow=fill;fontSize=10;strokeColor=#9673a6;" vertex="1" parent="1">
          <mxGeometry x="677.38" y="610" width="51.75" height="40" as="geometry" />
        </mxCell>
        <mxCell id="00jMR_IQg39lo3vC51mN-36" value="[IDR]&lt;div style=&quot;line-height: 200%;&quot;&gt;&lt;font style=&quot;font-size: 9px;&quot;&gt;ID1,ID2,ID3&lt;/font&gt;&lt;/div&gt;&lt;div style=&quot;line-height: 40%;&quot;&gt;(cohort)&lt;/div&gt;" style="html=1;outlineConnect=0;whiteSpace=wrap;fillColor=#e1d5e7;shape=mxgraph.archimate3.businessObject;overflow=fill;fontSize=10;strokeColor=#9673a6;" vertex="1" parent="1">
          <mxGeometry x="677.38" y="670" width="51.75" height="40" as="geometry" />
        </mxCell>
        <mxCell id="00jMR_IQg39lo3vC51mN-42" value="[ID1]&lt;div style=&quot;line-height: 190%;&quot;&gt;&lt;span style=&quot;background-color: initial;&quot;&gt;EduIdx&lt;/span&gt;&lt;br&gt;&lt;/div&gt;&lt;div style=&quot;line-height: 40%;&quot;&gt;&lt;span style=&quot;background-color: initial;&quot;&gt;(cohort)&lt;/span&gt;&lt;/div&gt;" style="html=1;outlineConnect=0;whiteSpace=wrap;fillColor=#e1d5e7;shape=mxgraph.archimate3.businessObject;overflow=fill;fontSize=10;strokeColor=#9673a6;" vertex="1" parent="1">
          <mxGeometry x="317.38" y="490" width="51.75" height="40" as="geometry" />
        </mxCell>
        <mxCell id="00jMR_IQg39lo3vC51mN-68" value="[ID1]&lt;div style=&quot;line-height: 190%;&quot;&gt;&lt;span style=&quot;background-color: initial;&quot;&gt;EduIdx&lt;/span&gt;&lt;br&gt;&lt;/div&gt;&lt;div style=&quot;line-height: 40%;&quot;&gt;&lt;span style=&quot;background-color: initial;&quot;&gt;(cohort)&lt;/span&gt;&lt;/div&gt;" style="html=1;outlineConnect=0;whiteSpace=wrap;fillColor=#e1d5e7;shape=mxgraph.archimate3.businessObject;overflow=fill;fontSize=10;strokeColor=#9673a6;" vertex="1" parent="1">
          <mxGeometry x="677.38" y="490" width="51.75" height="40" as="geometry" />
        </mxCell>
        <mxCell id="00jMR_IQg39lo3vC51mN-69" value="[NHS#]&lt;div style=&quot;line-height: 200%;&quot;&gt;(cohort)&lt;/div&gt;" style="html=1;outlineConnect=0;whiteSpace=wrap;fillColor=#ffe6cc;shape=mxgraph.archimate3.businessObject;overflow=fill;fontSize=10;strokeColor=#d79b00;" vertex="1" parent="1">
          <mxGeometry x="677.3799999999999" y="430" width="51.75" height="40" as="geometry" />
        </mxCell>
        <mxCell id="00jMR_IQg39lo3vC51mN-70" value="[ID2]&lt;div style=&quot;line-height: 200%;&quot;&gt;lat/long&lt;/div&gt;&lt;div style=&quot;line-height: 40%;&quot;&gt;(cohort)&lt;/div&gt;" style="html=1;outlineConnect=0;whiteSpace=wrap;fillColor=#e1d5e7;shape=mxgraph.archimate3.businessObject;overflow=fill;fontSize=10;strokeColor=#9673a6;" vertex="1" parent="1">
          <mxGeometry x="557.37" y="550" width="51.75" height="40" as="geometry" />
        </mxCell>
        <mxCell id="00jMR_IQg39lo3vC51mN-27" value="[NHS#]&lt;div style=&quot;line-height: 200%;&quot;&gt;(cohort)&lt;/div&gt;" style="html=1;outlineConnect=0;whiteSpace=wrap;fillColor=#ffe6cc;shape=mxgraph.archimate3.businessObject;overflow=fill;fontSize=10;strokeColor=#d79b00;" vertex="1" parent="1">
          <mxGeometry x="437.37" y="320" width="51.75" height="40" as="geometry" />
        </mxCell>
        <mxCell id="00jMR_IQg39lo3vC51mN-28" value="[NHS#]&lt;div style=&quot;line-height: 200%;&quot;&gt;(cohort)&lt;/div&gt;" style="html=1;outlineConnect=0;whiteSpace=wrap;fillColor=#ffe6cc;shape=mxgraph.archimate3.businessObject;overflow=fill;fontSize=10;strokeColor=#d79b00;" vertex="1" parent="1">
          <mxGeometry x="197.38" y="320" width="51.75" height="40" as="geometry" />
        </mxCell>
        <mxCell id="00jMR_IQg39lo3vC51mN-77" style="edgeStyle=orthogonalEdgeStyle;rounded=0;orthogonalLoop=1;jettySize=auto;html=1;" edge="1" parent="1" source="00jMR_IQg39lo3vC51mN-72" target="00jMR_IQg39lo3vC51mN-92">
          <mxGeometry relative="1" as="geometry">
            <mxPoint x="223.245" y="950" as="targetPoint" />
          </mxGeometry>
        </mxCell>
        <mxCell id="00jMR_IQg39lo3vC51mN-83" value="[ID3]&lt;div style=&quot;font-size: 10px;&quot;&gt;Health data&lt;br style=&quot;font-size: 10px;&quot;&gt;&lt;div style=&quot;font-size: 10px;&quot;&gt;(cohort)&lt;/div&gt;&lt;div style=&quot;font-size: 10px;&quot;&gt;&lt;br style=&quot;font-size: 10px;&quot;&gt;&lt;/div&gt;&lt;/div&gt;" style="html=1;outlineConnect=0;whiteSpace=wrap;fillColor=#ffe6cc;shape=mxgraph.archimate3.representation;strokeColor=#d79b00;fontSize=10;" vertex="1" parent="1">
          <mxGeometry x="437.37" y="810" width="55.25" height="50" as="geometry" />
        </mxCell>
        <mxCell id="00jMR_IQg39lo3vC51mN-84" value="[ID3]&lt;div style=&quot;font-size: 10px;&quot;&gt;Health data&lt;br style=&quot;font-size: 10px;&quot;&gt;&lt;div style=&quot;font-size: 10px;&quot;&gt;(cohort)&lt;/div&gt;&lt;div style=&quot;font-size: 10px;&quot;&gt;&lt;br style=&quot;font-size: 10px;&quot;&gt;&lt;/div&gt;&lt;/div&gt;" style="html=1;outlineConnect=0;whiteSpace=wrap;fillColor=#ffe6cc;shape=mxgraph.archimate3.representation;strokeColor=#d79b00;fontSize=10;" vertex="1" parent="1">
          <mxGeometry x="197.38" y="810" width="55.25" height="50" as="geometry" />
        </mxCell>
        <mxCell id="00jMR_IQg39lo3vC51mN-87" value="[ID2]&lt;div style=&quot;font-size: 10px;&quot;&gt;Env data&lt;br style=&quot;font-size: 10px;&quot;&gt;&lt;div style=&quot;font-size: 10px;&quot;&gt;(cohort)&lt;/div&gt;&lt;div style=&quot;font-size: 10px;&quot;&gt;&lt;br style=&quot;font-size: 10px;&quot;&gt;&lt;/div&gt;&lt;/div&gt;" style="html=1;outlineConnect=0;whiteSpace=wrap;fillColor=#d5e8d4;shape=mxgraph.archimate3.representation;strokeColor=#82b366;fontSize=10;verticalAlign=middle;" vertex="1" parent="1">
          <mxGeometry x="197.38" y="740" width="55.25" height="50" as="geometry" />
        </mxCell>
        <mxCell id="00jMR_IQg39lo3vC51mN-88" value="[ID2]&lt;div style=&quot;font-size: 10px;&quot;&gt;Env data&lt;br style=&quot;font-size: 10px;&quot;&gt;&lt;div style=&quot;font-size: 10px;&quot;&gt;(cohort)&lt;/div&gt;&lt;div style=&quot;font-size: 10px;&quot;&gt;&lt;br style=&quot;font-size: 10px;&quot;&gt;&lt;/div&gt;&lt;/div&gt;" style="html=1;outlineConnect=0;whiteSpace=wrap;fillColor=#d5e8d4;shape=mxgraph.archimate3.representation;strokeColor=#82b366;fontSize=10;verticalAlign=middle;" vertex="1" parent="1">
          <mxGeometry x="555.62" y="740" width="55.25" height="50" as="geometry" />
        </mxCell>
        <mxCell id="00jMR_IQg39lo3vC51mN-91" style="edgeStyle=orthogonalEdgeStyle;rounded=0;orthogonalLoop=1;jettySize=auto;html=1;" edge="1" parent="1" source="00jMR_IQg39lo3vC51mN-89" target="00jMR_IQg39lo3vC51mN-90">
          <mxGeometry relative="1" as="geometry" />
        </mxCell>
        <mxCell id="00jMR_IQg39lo3vC51mN-89" value="[ID1]&lt;div style=&quot;font-size: 10px;&quot;&gt;Edu data&lt;br style=&quot;font-size: 10px;&quot;&gt;&lt;div style=&quot;font-size: 10px;&quot;&gt;(cohort)&lt;/div&gt;&lt;div style=&quot;font-size: 10px;&quot;&gt;&lt;br style=&quot;font-size: 10px;&quot;&gt;&lt;/div&gt;&lt;/div&gt;" style="html=1;outlineConnect=0;whiteSpace=wrap;fillColor=#ffe6cc;shape=mxgraph.archimate3.representation;strokeColor=#d79b00;fontSize=10;" vertex="1" parent="1">
          <mxGeometry x="315.63" y="880" width="55.25" height="50" as="geometry" />
        </mxCell>
        <mxCell id="00jMR_IQg39lo3vC51mN-90" value="[ID1]&lt;div style=&quot;font-size: 10px;&quot;&gt;Edu data&lt;br style=&quot;font-size: 10px;&quot;&gt;&lt;div style=&quot;font-size: 10px;&quot;&gt;(cohort)&lt;/div&gt;&lt;div style=&quot;font-size: 10px;&quot;&gt;&lt;br style=&quot;font-size: 10px;&quot;&gt;&lt;/div&gt;&lt;/div&gt;" style="html=1;outlineConnect=0;whiteSpace=wrap;fillColor=#ffe6cc;shape=mxgraph.archimate3.representation;strokeColor=#d79b00;fontSize=10;" vertex="1" parent="1">
          <mxGeometry x="197.38" y="880" width="55.25" height="50" as="geometry" />
        </mxCell>
        <mxCell id="00jMR_IQg39lo3vC51mN-92" value="[IDR]&lt;div style=&quot;font-size: 10px;&quot;&gt;Linked data&lt;br style=&quot;font-size: 10px;&quot;&gt;&lt;div style=&quot;font-size: 10px;&quot;&gt;(cohort)&lt;/div&gt;&lt;div style=&quot;font-size: 10px;&quot;&gt;&lt;br style=&quot;font-size: 10px;&quot;&gt;&lt;/div&gt;&lt;/div&gt;" style="html=1;outlineConnect=0;whiteSpace=wrap;fillColor=#ffe6cc;shape=mxgraph.archimate3.representation;strokeColor=#d79b00;fontSize=10;" vertex="1" parent="1">
          <mxGeometry x="195.38" y="950" width="55.25" height="50" as="geometry" />
        </mxCell>
        <mxCell id="00jMR_IQg39lo3vC51mN-93" value="&lt;b&gt;[lat/long]&lt;/b&gt;&lt;div style=&quot;font-size: 10px;&quot;&gt;&lt;b&gt;Env data&lt;br style=&quot;font-size: 10px;&quot;&gt;&lt;/b&gt;&lt;div style=&quot;font-size: 10px;&quot;&gt;&lt;b&gt;(all)&lt;/b&gt;&lt;/div&gt;&lt;div style=&quot;font-size: 10px;&quot;&gt;&lt;br style=&quot;font-size: 10px;&quot;&gt;&lt;/div&gt;&lt;/div&gt;" style="html=1;outlineConnect=0;whiteSpace=wrap;fillColor=#d5e8d4;shape=mxgraph.archimate3.representation;strokeColor=#82b366;fontSize=10;verticalAlign=middle;" vertex="1" parent="1">
          <mxGeometry x="553.24" y="120" width="60" height="50" as="geometry" />
        </mxCell>
        <mxCell id="00jMR_IQg39lo3vC51mN-94" value="[NHS#]&lt;div style=&quot;font-size: 10px;&quot;&gt;Health data&lt;br style=&quot;font-size: 10px;&quot;&gt;&lt;div style=&quot;font-size: 10px;&quot;&gt;(all)&lt;/div&gt;&lt;div style=&quot;font-size: 10px;&quot;&gt;&lt;br style=&quot;font-size: 10px;&quot;&gt;&lt;/div&gt;&lt;/div&gt;" style="html=1;outlineConnect=0;whiteSpace=wrap;fillColor=#f8cecc;shape=mxgraph.archimate3.representation;strokeColor=#b85450;fontSize=10;fontStyle=1" vertex="1" parent="1">
          <mxGeometry x="430" y="120" width="60" height="50" as="geometry" />
        </mxCell>
        <mxCell id="00jMR_IQg39lo3vC51mN-95" value="[EduIdx]&lt;div style=&quot;font-size: 10px;&quot;&gt;Edu data&lt;br style=&quot;font-size: 10px;&quot;&gt;&lt;div style=&quot;font-size: 10px;&quot;&gt;(all)&lt;/div&gt;&lt;div style=&quot;font-size: 10px;&quot;&gt;&lt;br style=&quot;font-size: 10px;&quot;&gt;&lt;/div&gt;&lt;/div&gt;" style="html=1;outlineConnect=0;whiteSpace=wrap;fillColor=#f8cecc;shape=mxgraph.archimate3.representation;strokeColor=#b85450;fontSize=10;fontStyle=1" vertex="1" parent="1">
          <mxGeometry x="313.26" y="120" width="60" height="50" as="geometry" />
        </mxCell>
      </root>
    </mxGraphModel>
  </diagram>
  <diagram id="PHzhkNxORI83vbyawMVK" name="Page-2">
    <mxGraphModel dx="1434" dy="836" grid="1" gridSize="10" guides="1" tooltips="1" connect="1" arrows="1" fold="1" page="1" pageScale="1" pageWidth="827" pageHeight="1169" math="0" shadow="0">
      <root>
        <mxCell id="0" />
        <mxCell id="1" parent="0" />
      </root>
    </mxGraphModel>
  </diagram>
</mxfile>
